<svg xmlns="http://www.w3.org/2000/svg" id="_x30_1" height="512" viewBox="0 0 63 62" width="512"><g><g><g><path d="m45 37-.33 4h-5.67-7-7-7-.67l-.33-4z" fill="#b4dd7f"></path></g><g><path d="m49 34v2c0 .55-.45 1-1 1h-3-28-3c-.55 0-1-.45-1-1v-2c0-.55.45-1 1-1h9 16 9c.55 0 1 .45 1 1z" fill="#a0d468"></path></g><g><path d="m44.23 46.23-.54 6.46-11.69-11.69h7z" fill="#a0d468"></path></g><g><path d="m41.16 61h-3.16l-20-20h7l18.15 18.15v.02c-.08 1.03-.95 1.83-1.99 1.83z" fill="#a0d468"></path></g><g><path d="m17.91 47.91 13.09 13.09h-7l-5-5c0-.77-.3-1.47-.78-2 .48-.53.78-1.23.78-2 0-.85-.36-1.62-.93-2.16z" fill="#a0d468"></path></g><g><path d="m44.67 41-.44 5.23-5.23-5.23z" fill="#b4dd7f"></path></g><g><path d="m43.69 52.69-.54 6.46-18.15-18.15h7z" fill="#b4dd7f"></path></g><g><path d="m18 41 20 20h-7l-13.09-13.09-.58-6.91z" fill="#b4dd7f"></path></g><g><path d="m19 56 5 5h-3.16c-1.04 0-1.91-.8-1.99-1.83l-.16-1.85c.2-.39.31-.84.31-1.32z" fill="#b4dd7f"></path></g><g><path d="m13 25v1c0 .55-.45 1-1 1h-10c-.55 0-1-.45-1-1v-14c0-.55.45-1 1-1h10c.55 0 1 .45 1 1v1z" fill="#fcd770"></path></g><g><path d="m35 2v3h-8v-3c0-.55.45-1 1-1h6c.55 0 1 .45 1 1z" fill="#75b1f2"></path></g><g><path d="m39 29v4h-16v-4-2h14c0 1.1.9 2 2 2z" fill="#e6e9ed"></path></g><g><path d="m39 10.71v2.29c-.55 0-1.05.22-1.41.59-.37.36-.59.86-.59 1.41 0 1.1.9 2 2 2-.55 0-1.05.22-1.41.59-.37.36-.59.86-.59 1.41h-14v-5.35-.01c.51-.41 1.16-.64 1.85-.64h5.15c1.66 0 3-1.35 3-3 0-.55-.45-1-1-1h-8.75c.46-1.57 1.56-2.9 3.07-3.66l.68-.34h8l.68.34c2.04 1.02 3.32 3.1 3.32 5.37z" fill="#e6e9ed"></path></g><g><path d="m37 19c0 1.1.9 2 2 2-.55 0-1.05.22-1.41.59-.37.36-.59.86-.59 1.41 0 1.1.9 2 2 2-.55 0-1.05.22-1.41.59-.37.36-.59.86-.59 1.41h-14v-8z" fill="#fcd770"></path></g><g><path d="m41 13c1.1 0 2 .9 2 2 0 .55-.22 1.05-.59 1.41-.36.37-.86.59-1.41.59h-2c-1.1 0-2-.9-2-2 0-.55.22-1.05.59-1.41.36-.37.86-.59 1.41-.59z" fill="#f0d0b4"></path></g><g><path d="m41 17c1.1 0 2 .9 2 2 0 .55-.22 1.05-.59 1.41-.36.37-.86.59-1.41.59h-2c-1.1 0-2-.9-2-2 0-.55.22-1.05.59-1.41.36-.37.86-.59 1.41-.59z" fill="#f0d0b4"></path></g><g><path d="m41 21c1.1 0 2 .9 2 2 0 .55-.22 1.05-.59 1.41-.36.37-.86.59-1.41.59h-2c-1.1 0-2-.9-2-2 0-.55.22-1.05.59-1.41.36-.37.86-.59 1.41-.59z" fill="#f0d0b4"></path></g><g><path d="m41 25c1.1 0 2 .9 2 2 0 .55-.22 1.05-.59 1.41-.36.37-.86.59-1.41.59h-2c-1.1 0-2-.9-2-2 0-.55.22-1.05.59-1.41.36-.37.86-.59 1.41-.59z" fill="#f0d0b4"></path></g><g><path d="m23 27v2h-.34c-3.63 0-7.1-1.44-9.66-4v-12c2.56-2.56 6.03-4 9.66-4h.59 8.75c.55 0 1 .45 1 1 0 1.65-1.34 3-3 3h-5.15c-.69 0-1.34.23-1.85.64v.01 5.35z" fill="#f0d0b4"></path></g><g><path d="m61 23-6 8-6-8h4v-23h4v23z" fill="#ff826e"></path></g><g><path d="m19 56c0 .48-.11.93-.31 1.32-.37.74-1.03 1.3-1.83 1.54-.37 1.23-1.5 2.14-2.86 2.14-.77 0-1.47-.3-2-.78-.53.48-1.23.78-2 .78-1.36 0-2.49-.91-2.86-2.14-1.23-.37-2.14-1.5-2.14-2.86 0-.77.3-1.47.78-2-.48-.53-.78-1.23-.78-2 0-1.36.91-2.49 2.14-2.86.37-1.23 1.5-2.14 2.86-2.14.77 0 1.47.3 2 .78.53-.48 1.23-.78 2-.78 1.36 0 2.49.91 2.86 2.14.46.13.87.38 1.21.7.57.54.93 1.31.93 2.16 0 .77-.3 1.47-.78 2 .48.53.78 1.23.78 2z" fill="#ff826e"></path></g><g><circle cx="12" cy="54" fill="#fc6e51" r="2"></circle></g></g><g><path d="m48 32h-8v-2h1c1.654 0 3-1.346 3-3 0-.771-.301-1.468-.78-2 .48-.532.78-1.229.78-2s-.301-1.468-.78-2c.48-.532.78-1.229.78-2s-.301-1.468-.78-2c.48-.532.78-1.229.78-2 0-1.654-1.346-3-3-3h-1v-1.292c0-2.668-1.482-5.066-3.869-6.261l-.131-.065v-2.382c0-1.103-.897-2-2-2h-6c-1.103 0-2 .897-2 2v2.382l-.131.065c-1.5.75-2.68 2.024-3.325 3.558-3.227.024-6.284 1.093-8.802 3.033-.341-.615-.99-1.038-1.742-1.038h-10c-1.103 0-2 .897-2 2v14c0 1.103.897 2 2 2h10c.752 0 1.401-.423 1.743-1.039 2.376 1.83 5.231 2.873 8.257 3.007v2.032h-8c-1.103 0-2 .897-2 2v2c0 1.103.897 2 2 2h2.08l.768 9.212c-.73-.755-1.739-1.212-2.848-1.212-.705 0-1.394.19-2 .546-.606-.356-1.295-.546-2-.546-1.596 0-2.999.931-3.636 2.364-1.433.637-2.364 2.04-2.364 3.636 0 .705.19 1.394.546 2-.356.606-.546 1.295-.546 2 0 1.596.931 2.999 2.364 3.636.637 1.433 2.04 2.364 3.636 2.364.705 0 1.394-.19 2-.546.606.356 1.295.546 2 .546 1.596 0 2.999-.931 3.636-2.364.091-.04.173-.092.26-.138.242 1.419 1.482 2.502 2.944 2.502h20.32c1.548 0 2.861-1.209 2.988-2.751l1.772-21.249h2.08c1.103 0 2-.897 2-2v-2c0-1.103-.897-2-2-2zm-36-6h-10v-14h10zm12 0v-6h12.184c.133.374.335.711.596 1-.48.532-.78 1.229-.78 2s.301 1.468.78 2c-.261.289-.463.626-.596 1zm18-7c0 .552-.448 1-1 1h-2c-.552 0-1-.448-1-1s.448-1 1-1h2c.552 0 1 .448 1 1zm0 4c0 .552-.448 1-1 1h-2c-.552 0-1-.448-1-1s.448-1 1-1h2c.552 0 1 .448 1 1zm-1 5h-2c-.552 0-1-.448-1-1s.448-1 1-1h2c.552 0 1 .448 1 1s-.448 1-1 1zm1-13c0 .552-.448 1-1 1h-2c-.552 0-1-.448-1-1s.448-1 1-1h2c.552 0 1 .448 1 1zm-8-13v2h-6v-2zm-7.236 4.236.472-.236h7.527l.473.236c1.705.853 2.764 2.567 2.764 4.472v1.476c-1.161.414-2 1.514-2 2.816 0 .771.301 1.468.78 2-.261.289-.463.626-.596 1h-12.184v-3.789c.263-.126.547-.211.847-.211h5.155c2.204 0 3.998-1.794 3.998-4 0-1.103-.897-2-2-2h-7.172c.482-.74 1.135-1.363 1.936-1.764zm-12.764 18.323v-11.118c2.355-2.215 5.409-3.441 8.657-3.441l9.343.001c0 1.103-.896 1.999-1.998 1.999h-5.155c-1.524 0-2.894.847-3.575 2.215-.55 1.101-1.655 1.785-2.885 1.785h-.387v2h.387c1.382 0 2.658-.542 3.613-1.465v11.433c-3.001-.153-5.805-1.345-8-3.409zm10 3.441h12.184c.302.847.969 1.514 1.816 1.816v2.184h-14zm-4.03 27.556c-.063-.548-.236-1.078-.516-1.556.356-.606.546-1.295.546-2 0-.218-.021-.431-.054-.64l8.64 8.64h-4.172zm-1.095-8.095-.379-4.551 17.09 17.09h-4.172zm-2.304 10.44-.515.155-.155.515c-.255.855-1.02 1.429-1.901 1.429-.485 0-.957-.186-1.331-.521l-.669-.603-.669.603c-.374.335-.846.521-1.331.521-.881 0-1.646-.574-1.901-1.429l-.155-.515-.515-.155c-.855-.255-1.429-1.02-1.429-1.901 0-.485.186-.957.521-1.331l.603-.669-.603-.669c-.335-.374-.521-.846-.521-1.331 0-.881.574-1.646 1.429-1.901l.515-.155.155-.515c.255-.855 1.02-1.429 1.901-1.429.485 0 .957.186 1.331.521l.669.603.669-.603c.374-.335.846-.521 1.331-.521.881 0 1.646.574 1.901 1.429l.155.515.515.155c.855.255 1.429 1.02 1.429 1.901 0 .485-.186.957-.521 1.331l-.603.669.603.669c.335.374.521.846.521 1.331 0 .881-.574 1.646-1.429 1.901zm3.273 1.182-.075-.9 1.817 1.817h-.746c-.525 0-.952-.394-.996-.917zm21.316.917h-2.746l-18-18h4.172l17.46 17.46c-.166.323-.498.54-.886.54zm2.253-16.001-1.999-1.999h2.166zm-4.827-1.999 4.61 4.61-.321 3.851-8.461-8.461zm-7 0 11.071 11.071-.321 3.851-14.922-14.922zm12.161-2h-25.494l-.167-2h25.827zm-29.747-4v-2h34l.002 2z"></path><path d="m58 22v-22h-2v24h3l-4 5.333-4-5.333h3v-19h-2v17h-5l8 10.667 8-10.667z"></path><path d="m12 51c-1.654 0-3 1.346-3 3h2c0-.552.448-1 1-1s1 .448 1 1-.448 1-1 1v2c1.654 0 3-1.346 3-3s-1.346-3-3-3z"></path></g></g></svg>