<svg xmlns="http://www.w3.org/2000/svg" height="512" viewBox="0 0 64 64" width="512"><g id="Twotone"><g id="Color_copy" data-name="Color copy"><g><path d="m49 26h12v6h-12z" fill="#cff09e"></path><path d="m49 32h12v6h-12z" fill="#a8dba8"></path><path d="m49 38h12v6h-12z" fill="#79bd9a"></path><g fill="#cff09e"><path d="m52 22h6v4h-6z"></path><path d="m51 11h5l-1 6 6-9h-5v-5z"></path><path d="m12.184 19h-1.184a2 2 0 0 0 -2 2v2h24v-2h-18a2.99 2.99 0 0 1 -2.816-2z"></path><path d="m6.184 23h-1.184a2 2 0 0 0 -2 2v2h36v-2h-30a2.99 2.99 0 0 1 -2.816-2z"></path><path d="m25.671 55a12 12 0 0 1 -11.918-10.6l-1.207-9.919a4 4 0 0 1 3.97-4.481h19.131l.353-3h-30l4 34h22l.706-6z"></path></g></g></g><g id="Stroke_close_copy" data-name="Stroke close copy"><g fill="#3b8686"><path d="m17.113 40.871a1 1 0 0 0 -1.34.453l-.6 1.208a6.883 6.883 0 0 1 -.173-1.532 7.019 7.019 0 0 1 3.5-6.063 1 1 0 0 0 -1-1.733 9.027 9.027 0 0 0 -4.5 7.796 8.747 8.747 0 0 0 .231 1.974l-.948-.468a1 1 0 1 0 -.883 1.794l3.232 1.6a1 1 0 0 0 1.34-.453l1.6-3.232a1 1 0 0 0 -.459-1.344z"></path><path d="m29.588 44.249a1.016 1.016 0 0 0 -.724-.249l-3.6.232a1 1 0 1 0 .129 2l1.321-.085a6.957 6.957 0 0 1 -8.213.92 1 1 0 0 0 -1.001 1.727 8.965 8.965 0 0 0 10.6-1.2l.068 1.063a1 1 0 0 0 1 .936h.066a1 1 0 0 0 .933-1.063l-.232-3.6a1 1 0 0 0 -.347-.681z"></path><path d="m24.672 32.42.883-.588a1 1 0 1 0 -1.11-1.664l-3 2a1 1 0 0 0 -.277 1.387l2 3a1 1 0 1 0 1.664-1.11l-.74-1.109a7 7 0 0 1 4.908 6.664 1 1 0 0 0 2 0 9 9 0 0 0 -6.328-8.58z"></path><path d="m61 25h-2v-3a1 1 0 0 0 -1-1h-6a1 1 0 0 0 -1 1v3h-2a1 1 0 0 0 -1 1v18a1 1 0 0 0 1 1h5v13a2 2 0 0 1 -2 2h-5a2 2 0 0 1 -2-2v-8a4 4 0 0 0 -8 0v4a2 2 0 0 1 -2 2h-1.4l3.294-28h2.106a1 1 0 0 0 1-1v-2a3 3 0 0 0 -3-3h-3v-1a3 3 0 0 0 -3-3h-3.5l-2.7-3.6a1 1 0 0 0 -1.6 1.2l1.8 2.4h-14a3 3 0 0 0 -3 3v1h-3a3 3 0 0 0 -3 3v2a1 1 0 0 0 1 1h2.111l3.9 33.117a1 1 0 0 0 .989.883h22a1 1 0 0 0 .993-.883l.367-3.117h1.64a4 4 0 0 0 4-4v-4a2 2 0 0 1 4 0v8a4 4 0 0 0 4 4h5a4 4 0 0 0 4-4v-13h5a1 1 0 0 0 1-1v-18a1 1 0 0 0 -1-1zm-51-4a1 1 0 0 1 1-1h20a1 1 0 0 1 1 1v1h-22zm-6 4a1 1 0 0 1 1-1h32a1 1 0 0 1 1 1v1h-34zm27.111 35h-20.222l-3.764-32h27.75zm18.889-27h10v4h-10zm3-10h4v2h-4zm-3 4h10v4h-10zm10 16h-10v-4h10z"></path><path d="m45 40h-4a1 1 0 0 0 0 2h4a1 1 0 0 0 0-2z"></path><path d="m41 31h1v1a1 1 0 0 0 2 0v-1h1a1 1 0 0 0 0-2h-1v-1a1 1 0 0 0 -2 0v1h-1a1 1 0 0 0 0 2z"></path><path d="m51 12h3.819l-.8 4.836a1 1 0 0 0 .618 1.094 1 1 0 0 0 1.2-.375l6-9a1 1 0 0 0 -.837-1.555h-4v-4a1 1 0 0 0 -1.848-.53l-5 8a1 1 0 0 0 .848 1.53zm4-5.514v1.514a1 1 0 0 0 1 1h3.132l-2.38 3.568.234-1.4a1 1 0 0 0 -.986-1.168h-3.195z"></path></g></g></g></svg>