<svg xmlns="http://www.w3.org/2000/svg" id="Capa_1" height="512" viewBox="0 0 512 512" width="512"><g><g><path d="m109.346 465.838h293.307c66.11-46.289 109.347-123.009 109.347-209.838 0-141.385-114.615-256-256-256s-256 114.615-256 256c0 86.829 43.237 163.549 109.346 209.838z" fill="#603f42"></path></g><g><g><path d="m385.312 54.662 8.815-21.282-30.521-12.642-8.815 21.282-3.39.041c-23.38.285-44.34 14.476-53.288 36.078-3.491 8.428.511 18.091 8.939 21.582l32.113 23.186 39.103 6.312c8.428 3.491 18.091-.511 21.582-8.939 8.948-21.602 4.161-46.457-12.169-63.191z" fill="#e1eaf9"></path></g><g><path d="m328.634 90.781c8.948-21.602 29.908-35.793 53.288-36.078l3.39-.041 8.815-21.282-30.521-12.642-8.815 21.282-3.39.041c-23.38.285-44.34 14.476-53.288 36.078-3.491 8.428.511 18.091 8.939 21.582l32.113 23.186 39.103 6.312-40.695-16.856c-8.428-3.491-12.43-13.153-8.939-21.582z" fill="#c5def8"></path></g><g><path d="m352.984 190.261-39.103-6.312-32.113-23.186c-8.428-3.491-12.43-13.153-8.939-21.582 3.491-8.428 13.153-12.43 21.582-8.939l39.103 6.312 32.113 23.186c8.428 3.491 12.43 13.153 8.939 21.582-3.492 8.428-13.154 12.43-21.582 8.939z" fill="#e1eaf9"></path></g><g><path d="m324.931 142.884 2.996-7.232-33.516-5.41c-8.428-3.491-18.09.511-21.582 8.939-3.491 8.428.511 18.09 8.939 21.582l27.525 19.874 2.996-7.232c-8.428-3.491-12.43-13.153-8.939-21.582 3.491-8.428 13.153-12.43 21.581-8.939z" fill="#c5def8"></path></g><g><path d="m365.626 159.74-71.216-29.498c-8.428-3.491-12.43-13.153-8.939-21.582 3.491-8.428 13.153-12.43 21.582-8.939l71.216 29.498c8.428 3.491 12.43 13.153 8.939 21.582-3.492 8.428-13.154 12.43-21.582 8.939z" fill="#c5def8"></path></g><g><path d="m391.725 40.503-31.456-13.029c-2.551-1.057-3.763-3.982-2.706-6.533l1.913-4.619c1.057-2.551 3.982-3.763 6.533-2.706l31.456 13.029c2.551 1.057 3.763 3.982 2.706 6.533l-1.913 4.619c-1.057 2.551-3.982 3.763-6.533 2.706z" fill="#ffe400"></path></g><g><path d="m376.041 28.594 1.913-4.619c1.057-2.551 3.982-3.763 6.533-2.706l-18.478-7.654c-2.551-1.057-5.476.155-6.533 2.706l-1.913 4.619c-1.057 2.551.155 5.476 2.706 6.533l18.478 7.654c-2.552-1.057-3.763-3.981-2.706-6.533z" fill="#febb00"></path></g><g><path d="m315.992 121.302c3.491-8.428 13.153-12.43 21.582-8.939l-30.521-12.642c-8.428-3.491-18.091.511-21.582 8.939-3.491 8.428.511 18.091 8.939 21.582l30.521 12.642c-8.428-3.491-12.43-13.153-8.939-21.582z" fill="#8ec2ed"></path></g><g><path d="m260.186 169.704-15.109 36.476c-6.549 15.811.654 34.308 16.512 40.741 4.589 1.862 9.37 2.53 13.996 2.148 7.318-.604 14.582 2.405 19.33 8.007 3.001 3.541 6.853 6.449 11.415 8.377 15.763 6.664 33.935-1.322 40.484-17.133l15.109-36.476c3.492-8.429-.511-18.093-8.941-21.584l-71.212-29.497c-8.429-3.491-18.093.512-21.584 8.941z" fill="#8ec2ed"></path></g></g><g><g><path d="m157.209 42.02-8.815-21.282-30.521 12.642 8.815 21.282-2.368 2.426c-16.33 16.734-21.117 41.589-12.169 63.191 3.491 8.428 13.153 12.43 21.582 8.939l39.103-6.312 32.113-23.186c8.428-3.491 12.43-13.153 8.939-21.582-8.948-21.602-29.908-35.793-53.288-36.078z" fill="#e1eaf9"></path></g><g><path d="m142.671 107.638c-8.948-21.602-4.161-46.457 12.169-63.191l2.368-2.426-8.815-21.282-30.52 12.641 8.815 21.282-2.368 2.426c-16.33 16.734-21.117 41.589-12.169 63.191 3.491 8.428 13.153 12.43 21.582 8.939l39.103-6.312 32.113-23.186-40.695 16.856c-8.429 3.492-18.092-.51-21.583-8.938z" fill="#c5def8"></path></g><g><path d="m230.232 160.763-32.113 23.186-39.103 6.312c-8.428 3.491-18.091-.511-21.582-8.939-3.491-8.428.511-18.091 8.939-21.582l32.113-23.186 39.103-6.312c8.428-3.491 18.091.511 21.582 8.939 3.491 8.428-.511 18.091-8.939 21.582z" fill="#e1eaf9"></path></g><g><path d="m176.895 147.098-2.996-7.232-27.525 19.874c-8.428 3.491-12.43 13.153-8.939 21.582 3.491 8.428 13.153 12.43 21.582 8.939l33.516-5.41-2.996-7.232c-8.428 3.491-18.091-.511-21.582-8.939-3.49-8.428.512-18.091 8.94-21.582z" fill="#c5def8"></path></g><g><path d="m217.59 130.242-71.216 29.498c-8.428 3.491-18.091-.511-21.582-8.939-3.491-8.428.511-18.09 8.939-21.582l71.216-29.498c8.428-3.491 18.09.511 21.582 8.939 3.491 8.428-.511 18.091-8.939 21.582z" fill="#c5def8"></path></g><g><path d="m151.731 27.474-31.456 13.029c-2.551 1.057-5.476-.155-6.533-2.706l-1.913-4.619c-1.057-2.551.155-5.476 2.706-6.533l31.456-13.029c2.551-1.057 5.476.155 6.533 2.706l1.913 4.619c1.057 2.551-.155 5.476-2.706 6.533z" fill="#ff4155"></path></g><g><path d="m132.22 30.143-1.913-4.619c-1.057-2.551.155-5.476 2.706-6.533l-18.478 7.654c-2.551 1.057-3.763 3.982-2.706 6.533l1.913 4.619c1.057 2.551 3.982 3.763 6.533 2.706l18.478-7.654c-2.551 1.057-5.476-.154-6.533-2.706z" fill="#e80054"></path></g><g><path d="m155.314 138.159c-3.491-8.428.511-18.091 8.939-21.582l-30.521 12.642c-8.428 3.491-12.43 13.153-8.939 21.582 3.491 8.428 13.153 12.43 21.582 8.939l30.521-12.642c-8.429 3.491-18.091-.511-21.582-8.939z" fill="#8ec2ed"></path></g><g><path d="m150.078 211.845 15.109 36.476c6.549 15.811 24.722 23.797 40.484 17.133 4.562-1.929 8.415-4.837 11.415-8.378 4.748-5.602 12.012-8.611 19.33-8.007 4.626.382 9.406-.286 13.995-2.148 15.858-6.434 23.061-24.931 16.512-40.742l-15.109-36.476c-3.492-8.429-13.155-12.432-21.584-8.941l-71.212 29.497c-8.429 3.493-12.432 13.157-8.94 21.586z" fill="#8ec2ed"></path></g></g><g><g><path d="m272.518 30.536v-23.036h-33.036v23.036l-3.116 1.336c-21.491 9.21-35.425 30.342-35.425 53.724 0 9.123 7.395 16.518 16.518 16.518l38.541 9.131 38.542-9.132c9.123 0 16.518-7.395 16.518-16.518 0-23.382-13.934-44.513-35.425-53.724z" fill="#e1eaf9"></path></g><g><path d="m233.976 85.595c0-23.382 13.934-44.513 35.425-53.724l3.116-1.336v-23.035h-33.036v23.036l-3.116 1.336c-21.491 9.21-35.425 30.342-35.425 53.724 0 9.123 7.395 16.518 16.518 16.518l38.542 9.131 38.542-9.132h-44.048c-9.122 0-16.518-7.395-16.518-16.518z" fill="#c5def8"></path></g><g><path d="m294.542 168.184-38.542 9.132-38.542-9.132c-9.123 0-16.518-7.395-16.518-16.518 0-9.123 7.395-16.518 16.518-16.518l38.542-9.132 38.542 9.132c9.123 0 16.518 7.395 16.518 16.518-.001 9.123-7.396 16.518-16.518 16.518z" fill="#e1eaf9"></path></g><g><path d="m250.494 135.149v-7.828l-33.036 7.828c-9.123 0-16.518 7.395-16.518 16.518 0 9.123 7.395 16.518 16.518 16.518l33.036 7.828v-7.828c-9.123 0-16.518-7.395-16.518-16.518 0-9.123 7.396-16.518 16.518-16.518z" fill="#c5def8"></path></g><g><path d="m294.542 135.149h-77.083c-9.123 0-16.518-7.395-16.518-16.518 0-9.123 7.395-16.518 16.518-16.518h77.083c9.123 0 16.518 7.395 16.518 16.518-.001 9.122-7.396 16.518-16.518 16.518z" fill="#c5def8"></path></g><g><path d="m273.024 15h-34.048c-2.761 0-5-2.239-5-5v-5c0-2.761 2.239-5 5-5h34.048c2.761 0 5 2.239 5 5v5c0 2.761-2.239 5-5 5z" fill="#2a9ddd"></path></g><g><path d="m253.976 10v-5c0-2.761 2.239-5 5-5h-20c-2.761 0-5 2.239-5 5v5c0 2.761 2.239 5 5 5h20c-2.761 0-5-2.239-5-5z" fill="#167cc1"></path></g><g><path d="m233.976 118.631c0-9.123 7.395-16.518 16.518-16.518h-33.036c-9.123 0-16.518 7.395-16.518 16.518 0 9.123 7.395 16.518 16.518 16.518h33.036c-9.122 0-16.518-7.396-16.518-16.518z" fill="#8ec2ed"></path></g><g><path d="m200.941 184.704v39.482c0 17.113 13.733 31.446 30.846 31.322 4.953-.036 9.625-1.248 13.752-3.371 6.53-3.359 14.392-3.359 20.923 0 4.127 2.123 8.8 3.335 13.752 3.371 17.113.125 30.846-14.208 30.846-31.322v-39.482c0-9.124-7.396-16.52-16.52-16.52h-77.079c-9.124 0-16.52 7.396-16.52 16.52z" fill="#8ec2ed"></path></g></g><g><path d="m106.571 278.503-7.238-89.708c-.666-8.257-7.9-14.411-16.158-13.745-8.257.666-14.411 7.9-13.745 16.158l7.238 89.708c.666 8.257 7.9 14.411 16.158 13.745 8.257-.667 14.411-7.901 13.745-16.158z" fill="#f99300"></path></g><g><path d="m405.429 278.503 7.238-89.708c.666-8.257 7.9-14.411 16.158-13.745 8.257.666 14.411 7.9 13.745 16.158l-7.238 89.708c-.666 8.257-7.9 14.411-16.158 13.745-8.257-.667-14.411-7.901-13.745-16.158z" fill="#f99300"></path></g><g><path d="m86 170 23.346 295.838c41.538 29.084 92.098 46.162 146.654 46.162s105.116-17.078 146.654-46.162l23.346-295.838z" fill="#ffe400"></path></g><g><path d="m109.346 465.838c41.538 29.084 92.098 46.162 146.654 46.162s105.116-17.078 146.654-46.162c-131.183 0-239.723-102.065-247.782-232.999l-.791-12.839h267.974l3.945-50h-340z" fill="#febb00"></path></g><g><path d="m441 190.287h-370c-8.284 0-15-6.716-15-15 0-8.284 6.716-15 15-15h370c8.284 0 15 6.716 15 15 0 8.284-6.716 15-15 15z" fill="#fff442"></path></g><g><path d="m137.234 175.287c0-8.284 6.716-15 15-15h-81.234c-8.284 0-15 6.716-15 15s6.716 15 15 15h81.234c-8.284 0-15-6.716-15-15z" fill="#ffe400"></path></g><g><g><path d="m272.518 263.782v-23.036h-33.036v23.036l-3.116 1.336c-21.491 9.21-35.425 30.342-35.425 53.724 0 9.123 7.395 16.518 16.518 16.518l38.541 9.131 38.542-9.132c9.123 0 16.518-7.395 16.518-16.518 0-23.382-13.934-44.513-35.425-53.724z" fill="#febb00"></path></g><g><path d="m250.494 335.359c-9.123 0-16.518-7.395-16.518-16.518 0-23.382 13.934-44.513 35.425-53.724l3.116-1.336v-23.036h-33.036v23.036l-3.116 1.336c-21.491 9.21-35.425 30.342-35.425 53.724 0 9.122 7.395 16.518 16.518 16.518l38.542 9.132 16.518-3.914z" fill="#f99300"></path></g><g><path d="m294.542 401.43-38.542 9.132-38.542-9.132c-9.123 0-16.518-7.395-16.518-16.518 0-9.123 7.395-16.518 16.518-16.518l38.542-9.132 38.542 9.132c9.123 0 16.518 7.395 16.518 16.518-.001 9.123-7.396 16.518-16.518 16.518z" fill="#febb00"></path></g><g><path d="m250.494 401.43c-9.122 0-16.518-7.395-16.518-16.518 0-9.122 7.395-16.518 16.518-16.518l22.024-5.218-16.518-3.914-38.542 9.132c-9.122 0-16.518 7.395-16.518 16.518 0 9.122 7.395 16.518 16.518 16.518l38.542 9.132 16.518-3.914z" fill="#f99300"></path></g><g><path d="m294.542 368.394h-77.083c-9.123 0-16.518-7.395-16.518-16.518 0-9.123 7.395-16.518 16.518-16.518h77.083c9.123 0 16.518 7.395 16.518 16.518-.001 9.123-7.396 16.518-16.518 16.518z" fill="#f99300"></path></g><g><path d="m273.024 248.246h-34.048c-2.761 0-5-2.239-5-5v-5c0-2.761 2.239-5 5-5h34.048c2.761 0 5 2.239 5 5v5c0 2.761-2.239 5-5 5z" fill="#e07f00"></path></g><g><path d="m200.941 417.95v19.482c0 17.113 13.733 31.446 30.846 31.322 4.953-.036 9.625-1.248 13.752-3.371 6.53-3.359 14.392-3.359 20.923 0 4.127 2.123 8.8 3.335 13.752 3.371 17.113.125 30.846-14.208 30.846-31.322v-19.482c0-9.124-7.396-16.52-16.52-16.52h-77.079c-9.124 0-16.52 7.396-16.52 16.52z" fill="#f99300"></path></g><g><path d="m233.976 351.877c0-9.123 7.395-16.518 16.518-16.518h-33.036c-9.122 0-16.518 7.395-16.518 16.518 0 9.122 7.395 16.518 16.518 16.518h33.036c-9.122-.001-16.518-7.396-16.518-16.518z" fill="#e07f00"></path></g><g><path d="m233.976 437.432v-19.482c0-9.124 7.396-16.52 16.52-16.52h-33.036c-9.124 0-16.52 7.396-16.52 16.52v19.482c0 17.113 13.733 31.446 30.846 31.322 4.953-.036 9.625-1.248 13.752-3.371.988-.508 2.01-.93 3.05-1.285-8.786-5.563-14.612-15.523-14.612-26.666z" fill="#e07f00"></path></g></g></g></svg>