<?xml version="1.0" encoding="UTF-8"?> <svg xmlns="http://www.w3.org/2000/svg" width="270" height="90" viewBox="0 0 270 90"><defs><style> .cls-1 { fill: #071232; } .cls-2 { fill: #b10f3c; } </style></defs><path id="Wastii" class="cls-1" d="M129.492,67.816h7.933l5.74-31.388,5.8,31.388h7.74L164,20.994h-7.869l-4.256,30.348L146.261,21.11h-6.45l-5.418,30.232-4.321-30.348h-7.933Zm46.372,0.52a7.162,7.162,0,0,0,4.741-1.532,8.386,8.386,0,0,0,2.612-3.786q0.256,1.677.9,4.8h7.868a60.165,60.165,0,0,1-.645-8.208V44.174q0-4.913-2.644-7.6t-8.127-2.688q-6.063,0-9.061,2.746t-3.193,8.526l8.32,0.289,0.129-2.023q0.129-3.7,3.1-3.7a2.476,2.476,0,0,1,2.354,1.069,7.091,7.091,0,0,1,.613,3.382v2.89a82.41,82.41,0,0,0-7.965,3.064,13.837,13.837,0,0,0-5.031,3.9,9.836,9.836,0,0,0-2.032,6.388,7.759,7.759,0,0,0,1,3.786,8.059,8.059,0,0,0,2.838,2.977,7.766,7.766,0,0,0,4.224,1.156h0Zm3.225-5.838a2.63,2.63,0,0,1-2.225-1.069,4.74,4.74,0,0,1-.806-2.919,5.552,5.552,0,0,1,1.677-4.133,21.844,21.844,0,0,1,5.095-3.439V60.3a7.694,7.694,0,0,1-1.645,1.5,3.622,3.622,0,0,1-2.1.694h0Zm28.829,5.838a12.649,12.649,0,0,0,7.836-2.312,7.705,7.705,0,0,0,3.064-6.532,7.864,7.864,0,0,0-1.58-4.942,25.035,25.035,0,0,0-4.483-4.306l-4.514-3.7a18.855,18.855,0,0,1-2.709-2.428,3.084,3.084,0,0,1-.9-1.965,2.493,2.493,0,0,1,.806-1.908,3.045,3.045,0,0,1,2.161-.751,3.767,3.767,0,0,1,3.063,1.474,9.068,9.068,0,0,1,1.709,3.786l5.74-2.2a10.941,10.941,0,0,0-3.611-6.33,10.721,10.721,0,0,0-7.159-2.341,11.754,11.754,0,0,0-7.579,2.4,7.709,7.709,0,0,0-3,6.33,8.248,8.248,0,0,0,1.355,4.8,17.843,17.843,0,0,0,4.192,4.046l4.45,3.468a18.612,18.612,0,0,1,3.225,2.861,3.848,3.848,0,0,1,.9,2.457,2.385,2.385,0,0,1-.806,1.907,3.409,3.409,0,0,1-2.29.694q-3.934,0-5.418-5.607l-6.514,2.254a12.246,12.246,0,0,0,4.322,6.59,12.621,12.621,0,0,0,7.739,2.254h0Zm26.443-.116a36.382,36.382,0,0,0,5.611-.4v-6.07a13.388,13.388,0,0,1-2.709.231,3.649,3.649,0,0,1-2.548-.751,3.183,3.183,0,0,1-.806-2.428V39.549h5.611V34.4h-5.611v-10h-8.836v10h-3.74v5.145h3.74V59.492q0,4.335,2.1,6.532t7.192,2.2h0Zm10.9-39.134h8.772V22.555h-8.772v6.532Zm0,38.73h8.772V34.4h-8.772V67.816Zm15.994-38.73h8.772V22.555h-8.772v6.532Zm0,38.73h8.772V34.4h-8.772V67.816Z" transform="translate(-0.188 -1.094)"></path><path class="cls-2" d="M31.922,18.24h62.25a6.053,6.053,0,0,1,6.015,6.715L97.035,53.694A54.841,54.841,0,0,0,82.92,56.309l1.248-22.764a3.018,3.018,0,1,0-6.026-.331l-1.4,25.617a36.564,36.564,0,0,0-10.665,7.8V33.379a3.025,3.025,0,1,0-6.05,0V72.191a14.274,14.274,0,0,1-1.8.725c-2.63.861-5.285,1.684-7.957,2.441L47.952,33.214a3.018,3.018,0,1,0-6.026.331L44.3,76.917q-1.018.242-2.039,0.468a77.1,77.1,0,0,1-10.424,1.675L25.907,24.955a6.053,6.053,0,0,1,6.015-6.715h0ZM53.3,1.1H72.8a4.886,4.886,0,0,1,4.68,3.322l1.149,3.283H99.358a4.143,4.143,0,0,1,4.129,4.132h0a4.143,4.143,0,0,1-4.129,4.132H26.736a4.144,4.144,0,0,1-4.129-4.132h0a4.143,4.143,0,0,1,4.129-4.132H47.469l1.148-3.283A4.886,4.886,0,0,1,53.3,1.1Zm2.9,79.542C4.963,100.337-7.319,86.184,25.336,59.313,7.086,81.094,18.855,88.975,59.156,75.779A15.4,15.4,0,0,0,66.8,70.415c12.058-15.405,42.44-18.754,59.2-5.692-12.348-.184-32.961,36.773-59.2,14.9q10.58-5.291,31.1-13.709C82.806,69.872,70.495,75.144,56.195,80.642ZM9.1,61.971l0.6-1.719a4.247,4.247,0,0,1,2.74-2.712l1.633-.547a0.131,0.131,0,0,0,.09-0.125,0.129,0.129,0,0,0-.089-0.126l-1.718-.6A4.248,4.248,0,0,1,9.647,53.4L9.1,51.767a0.133,0.133,0,0,0-.251,0l-0.6,1.719A4.248,4.248,0,0,1,5.511,56.2l-1.633.548a0.131,0.131,0,0,0-.091.124A0.132,0.132,0,0,0,3.877,57l1.718,0.6a4.246,4.246,0,0,1,2.71,2.742L8.853,61.97A0.133,0.133,0,0,0,9.1,61.971Zm8.824-15.829,0.561-1.614a3.987,3.987,0,0,1,2.572-2.545l1.532-.514a0.123,0.123,0,0,0,.085-0.118,0.124,0.124,0,0,0-.083-0.119l-1.613-.56A3.988,3.988,0,0,1,18.438,38.1l-0.513-1.533a0.124,0.124,0,0,0-.236,0l-0.561,1.613a3.983,3.983,0,0,1-2.572,2.544l-1.532.514a0.124,0.124,0,0,0-.085.118,0.121,0.121,0,0,0,.084.118l1.612,0.561a3.985,3.985,0,0,1,2.543,2.573l0.514,1.533A0.125,0.125,0,0,0,17.928,46.142ZM3.673,44.158l0.391-1.125a2.783,2.783,0,0,1,1.8-1.777l1.07-.358a0.086,0.086,0,0,0,.059-0.082,0.085,0.085,0,0,0-.058-0.082L5.8,40.341a2.783,2.783,0,0,1-1.776-1.8L3.67,37.474a0.087,0.087,0,0,0-.165,0L3.114,38.6a2.783,2.783,0,0,1-1.8,1.777l-1.07.358a0.087,0.087,0,0,0,0,.165l1.126,0.392a2.783,2.783,0,0,1,1.776,1.8l0.358,1.07A0.087,0.087,0,0,0,3.673,44.158Z" transform="translate(-0.188 -1.094)"></path></svg> 